<?xml version="1.0" encoding="UTF-8"?>
<svg xmlns="http://www.w3.org/2000/svg" xmlns:xlink="http://www.w3.org/1999/xlink" width="415.022" height="273.617" viewBox="0 0 415.022 273.617">
<path fill-rule="nonzero" fill="rgb(0%, 0%, 0%)" fill-opacity="1" d="M 256.082031 48.746094 C 256.328125 46.363281 256.574219 43.40625 256.574219 43.40625 C 260.515625 43.652344 261.667969 42.832031 260.351562 42.09375 C 259.039062 41.355469 256.738281 41.027344 256.738281 41.027344 C 256.738281 41.027344 255.015625 39.464844 247.871094 39.464844 C 240.726562 39.464844 236.78125 40.78125 233.828125 42.011719 C 230.871094 43.242188 228.242188 43.488281 225.613281 43.40625 C 222.984375 43.324219 218.960938 42.257812 212.144531 43.40625 C 205.328125 44.558594 203.191406 47.675781 203.191406 47.675781 C 198.265625 48.171875 195.292969 52.464844 195.144531 52.769531 C 194.078125 54.988281 195.308594 54.824219 196.542969 54 C 197.773438 53.179688 203.109375 50.222656 203.109375 50.222656 C 203.109375 50.222656 204.753906 55.972656 205.410156 57.203125 C 206.066406 58.4375 213.292969 58.847656 219.125 57.449219 C 224.957031 56.054688 226.515625 53.835938 226.84375 50.878906 C 227.175781 47.925781 227.585938 46.117188 229.882812 46.199219 C 232.183594 46.28125 233.988281 50.304688 234.730469 52.113281 C 235.46875 53.917969 242.367188 55.070312 247.871094 53.917969 C 253.371094 52.769531 255.835938 51.125 256.082031 48.746094 M 414.316406 253.496094 C 412.898438 254.203125 410.675781 254.507812 406.632812 251.371094 C 402.589844 248.238281 402.484375 247.226562 401.679688 246.519531 C 400.871094 245.8125 396.824219 243.386719 395.8125 242.476562 C 394.800781 241.566406 393.992188 241.464844 393.589844 242.070312 C 393.183594 242.675781 393.792969 243.285156 396.421875 245.304688 C 399.050781 247.328125 401.578125 249.65625 401.980469 251.472656 C 402.386719 253.292969 403.195312 256.125 404.914062 259.96875 C 406.632812 263.808594 407.542969 266.132812 407.238281 266.84375 C 406.9375 267.550781 405.113281 269.574219 402.082031 267.449219 C 399.050781 265.328125 397.632812 260.777344 396.117188 258.046875 C 394.601562 255.316406 391.769531 251.878906 389.644531 250.363281 C 387.523438 248.84375 387.015625 247.734375 386.511719 248.542969 C 386.007812 249.351562 387.421875 250.160156 389.546875 252.890625 C 391.667969 255.621094 392.578125 257.742188 392.578125 258.855469 C 392.578125 259.96875 392.679688 262.191406 393.589844 264.515625 C 394.5 266.84375 394.703125 269.167969 393.691406 269.574219 C 392.679688 269.976562 391.265625 270.582031 388.636719 267.753906 C 386.007812 264.921875 385.097656 258.453125 385.097656 258.453125 C 385.097656 258.453125 383.277344 256.023438 380.949219 254.609375 C 378.625 253.195312 378.421875 253.597656 378.421875 255.921875 C 378.421875 258.25 379.636719 259.867188 379.636719 261.988281 C 379.636719 264.113281 380.75 265.832031 381.355469 269.472656 C 381.960938 273.113281 378.726562 273.210938 376.300781 270.484375 C 373.875 267.753906 370.636719 256.328125 370.636719 256.328125 C 370.636719 256.328125 363.761719 252.179688 357.898438 248.238281 C 352.03125 244.296875 350.011719 239.242188 350.011719 239.242188 C 343.539062 233.78125 328.777344 229.230469 312.5 225.488281 C 296.222656 221.746094 278.527344 214.773438 278.527344 214.773438 C 278.527344 214.773438 277.71875 218.414062 278.730469 219.625 C 279.738281 220.839844 279.941406 222.960938 278.324219 223.265625 C 276.707031 223.570312 276.203125 225.691406 276.203125 225.691406 C 279.4375 228.722656 278.933594 232.367188 276.808594 236.207031 C 274.6875 240.046875 274.785156 246.117188 274.988281 251.574219 C 275.191406 257.035156 274.484375 273.617188 274.484375 273.617188 L 159.828125 273.617188 C 159.828125 273.617188 159.726562 271.59375 160.128906 267.042969 C 160.535156 262.496094 164.476562 256.933594 164.476562 256.933594 L 163.0625 246.824219 C 163.0625 246.824219 159.015625 243.488281 158.917969 241.765625 C 158.816406 240.046875 161.445312 236.105469 161.445312 236.105469 C 161.242188 233.171875 158.410156 220.535156 157.703125 217.804688 C 156.996094 215.074219 158.207031 210.019531 158.207031 210.019531 C 158.207031 210.019531 158.007812 207.792969 157.703125 203.652344 C 157.398438 199.503906 156.792969 184.035156 158.007812 178.777344 C 159.21875 173.519531 158.105469 173.921875 155.679688 171.800781 C 153.253906 169.675781 154.265625 164.824219 154.871094 162.296875 C 155.476562 159.769531 156.691406 156.332031 156.085938 153.5 C 155.476562 150.667969 155.074219 142.074219 155.074219 142.074219 C 155.074219 142.074219 152.140625 138.433594 147.1875 135.90625 C 142.234375 133.378906 137.378906 132.167969 132.222656 124.28125 C 127.066406 116.390625 119.6875 104.664062 119.6875 104.664062 C 116.453125 106.179688 108.96875 107.699219 108.96875 107.699219 C 108.96875 107.699219 106.542969 111.945312 105.023438 114.269531 C 103.507812 116.59375 99.261719 122.15625 96.429688 122.964844 C 93.601562 123.773438 91.578125 122.15625 93.398438 120.035156 C 95.21875 117.910156 96.9375 114.875 97.746094 113.058594 C 98.554688 111.238281 99.363281 109.316406 100.171875 107.597656 C 100.980469 105.878906 102.902344 102.84375 103.207031 101.023438 C 103.507812 99.203125 103.207031 98.800781 101.585938 100.011719 C 99.96875 101.226562 94.105469 105.273438 90.769531 107.597656 C 87.433594 109.921875 84.097656 111.945312 80.65625 112.046875 C 77.21875 112.148438 76.917969 109.316406 79.445312 107.800781 C 81.972656 106.28125 86.925781 102.742188 88.949219 100.417969 C 90.972656 98.09375 94.003906 95.96875 97.644531 93.949219 C 101.285156 91.925781 100.578125 89.699219 99.363281 90.003906 C 98.148438 90.308594 96.230469 90.8125 94.511719 91.621094 C 92.792969 92.429688 90.164062 94.046875 88.140625 95.261719 C 86.117188 96.472656 79.34375 100.621094 75.90625 100.113281 C 72.46875 99.609375 72.875 96.878906 73.882812 95.664062 C 74.894531 94.453125 76.714844 93.339844 80.355469 90.410156 C 83.996094 87.476562 89.859375 83.835938 92.082031 83.230469 C 94.308594 82.621094 97.238281 82.015625 98.65625 80.703125 C 100.070312 79.386719 99.769531 77.566406 98.65625 77.566406 C 97.542969 77.566406 94.609375 77.871094 90.667969 78.476562 C 86.726562 79.085938 82.984375 80.398438 80.253906 80.5 C 77.523438 80.601562 75.199219 80.296875 74.894531 77.667969 C 74.59375 75.039062 76.816406 73.925781 80.859375 72.109375 C 84.90625 70.289062 90.0625 69.277344 93.601562 68.46875 C 97.140625 67.660156 102.800781 67.253906 108.058594 66.042969 C 113.316406 64.828125 119.078125 63.511719 119.988281 62.199219 C 120.898438 60.882812 121.203125 58.761719 120.695312 56.839844 C 120.191406 54.917969 120.191406 51.886719 120.695312 46.832031 C 121.203125 41.777344 124.035156 40.664062 125.957031 40.765625 C 127.875 40.867188 129.394531 42.179688 130 46.121094 C 130.605469 50.066406 131.109375 54.414062 131.109375 56.03125 C 131.109375 57.648438 131.71875 58.761719 132.527344 60.277344 C 133.335938 61.792969 134.75 63.816406 135.257812 68.667969 C 135.761719 73.523438 133.941406 80.398438 133.941406 80.398438 C 137.179688 86.164062 145.164062 89.902344 151.636719 93.238281 C 158.105469 96.578125 162.757812 107.394531 162.757812 107.394531 C 162.757812 107.394531 173.070312 107.597656 174.890625 105.976562 C 176.710938 104.363281 179.542969 104.160156 181.765625 102.339844 C 183.992188 100.519531 186.113281 102.035156 189.046875 98.09375 C 191.976562 94.148438 195.113281 96.171875 195.113281 96.171875 C 198.449219 95.363281 199.054688 90.507812 199.054688 87.273438 C 199.054688 84.039062 201.988281 84.242188 201.988281 84.242188 L 200.773438 80.09375 C 197.742188 80.5 193.695312 75.34375 192.585938 73.015625 C 191.472656 70.691406 191.171875 67.960938 189.855469 65.636719 C 188.542969 63.3125 187.53125 59.066406 188.339844 55.121094 C 189.148438 51.179688 193.191406 53.605469 193.191406 53.605469 L 193.496094 53.707031 C 193.496094 53.707031 193.496094 34.796875 193.292969 29.742188 C 193.089844 24.6875 192.789062 18.722656 196.527344 13.96875 C 200.269531 9.21875 210.582031 3.859375 213.816406 2.648438 C 217.054688 1.433594 220.996094 -0.183594 224.332031 0.015625 C 227.671875 0.21875 236.363281 0.722656 243.746094 2.039062 C 251.128906 3.351562 255.273438 12.960938 258.304688 23.675781 C 261.339844 34.394531 263.5625 45.515625 263.5625 45.515625 C 267.101562 42.179688 269.628906 44.808594 269.832031 49.054688 C 270.035156 53.300781 269.933594 60.683594 268.113281 66.75 C 266.292969 72.816406 261.742188 72.109375 261.742188 72.109375 C 261.742188 72.109375 261.542969 77.367188 260.53125 81.207031 C 259.519531 85.050781 256.890625 86.96875 256.890625 86.96875 L 255.578125 103.652344 C 255.578125 103.652344 264.371094 107.699219 269.328125 115.179688 C 274.28125 122.664062 277.113281 130.449219 276.808594 136.816406 C 276.503906 143.1875 276.808594 147.835938 278.226562 150.667969 C 279.640625 153.5 278.324219 158.25 278.324219 158.25 C 280.347656 159.566406 281.359375 161.691406 281.054688 164.117188 C 280.753906 166.542969 280.246094 168.261719 280.246094 168.261719 C 280.246094 168.261719 281.964844 170.6875 282.875 172.710938 C 283.785156 174.734375 284.1875 178.273438 284.1875 178.273438 C 290.355469 180.089844 302.488281 187.371094 313.613281 194.851562 C 324.734375 202.335938 355.066406 214.871094 358.605469 216.492188 C 362.144531 218.109375 374.882812 223.265625 378.523438 223.265625 C 382.164062 223.265625 387.320312 225.589844 390.152344 228.21875 C 392.980469 230.847656 395.609375 230.644531 397.128906 229.835938 C 398.644531 229.027344 400.261719 228.015625 400.464844 230.039062 C 400.667969 232.0625 399.351562 233.375 399.351562 233.375 C 399.351562 233.375 403.902344 235.398438 405.722656 238.226562 C 407.542969 241.058594 411.789062 246.824219 413.304688 248.644531 C 414.820312 250.460938 415.730469 252.789062 414.316406 253.496094 M 63.753906 54.988281 C 31.191406 61.9375 2.730469 57.890625 0.183594 45.949219 C -2.363281 34.007812 21.964844 18.695312 54.523438 11.746094 C 87.082031 4.800781 115.542969 8.84375 118.09375 20.785156 C 120.640625 32.726562 96.3125 48.039062 63.753906 54.988281 "/>
</svg>
